<svg viewBox="0 0 250 250" xmlns="http://www.w3.org/2000/svg">
  <path style="fill: none; stroke-miterlimit: 7.33; stroke-width: 6px; stroke: rgb(202, 221, 234); transform-origin: 127px 121.825px;" d="M 54.99 111.712 L 38.363 48.191 C 36.983 41.242 39.541 36.126 46.037 32.843 L 62.237 29.433"></path>
  <path style="fill: none; stroke-miterlimit: 7.33; stroke-width: 6px; stroke: rgb(202, 221, 234); transform-origin: 127px 121.825px;" d="M 137.498 131.899 L 120.871 195.42 C 119.491 202.369 122.049 207.485 128.545 210.768 L 144.745 214.178" transform="matrix(-1, 0, 0, -1, -0.000033, 0.000007)"></path>
  <path style="fill: none; stroke-width: 12px; stroke-linecap: round; stroke: rgb(44, 88, 113); transform-origin: 127px 121.826px;" d="M 103.641 55.393 L 181.443 55.34 C 209.86 56.674 228.145 73.028 228.7 102.602 L 228.803 110.898 C 229.604 140.724 209.206 162.456 181.833 162.456 L 135.519 162.345" transform="matrix(0, 0.999997, -1.000003, 0, -0.000014, 0.000019)"></path>
  <path style="fill: none; stroke: rgb(44, 88, 113); stroke-linecap: round; stroke-width: 12px; transform-origin: 127px 121.825px;" d="M 55.633 112.114 C 67.875 135.511 103.83 136.686 115.762 112.114"></path>
  <ellipse style="stroke-width: 14px; paint-order: fill; fill: rgb(225, 239, 251); transform-origin: 127px 121.825px;" cx="193.089" cy="87.67" rx="15.823" ry="15.823"></ellipse>
  <path d="M 215.912 87.67 C 215.912 93.47 212.973 100.063 209.227 103.808 C 205.482 107.554 198.889 110.493 193.089 110.493 C 187.289 110.493 180.696 107.554 176.951 103.808 C 173.205 100.063 170.266 93.47 170.266 87.67 C 170.266 81.87 173.205 75.277 176.951 71.532 C 180.696 67.786 187.289 64.847 193.089 64.847 C 198.889 64.847 205.482 67.786 209.227 71.532 C 212.973 75.277 215.912 81.87 215.912 87.67 Z M 199.328 81.431 C 197.347 79.45 196.028 78.847 193.089 78.847 C 190.15 78.847 188.831 79.45 186.85 81.431 C 184.869 83.412 184.266 84.731 184.266 87.67 C 184.266 90.609 184.869 91.928 186.85 93.909 C 188.831 95.89 190.15 96.493 193.089 96.493 C 196.028 96.493 197.347 95.89 199.328 93.909 C 201.309 91.928 201.912 90.609 201.912 87.67 C 201.912 84.731 201.309 83.412 199.328 81.431 Z" style="fill: rgb(93, 109, 125); transform-origin: 127px 121.825px;"></path>
  <path d="M 215.956 87.651 C 215.956 93.451 213.017 100.044 209.271 103.789 C 206.15 106.911 201.051 109.472 196.081 110.239 L 196.081 96.119 C 197.261 95.751 198.201 95.061 199.372 93.89 C 201.353 91.909 201.956 90.59 201.956 87.651 C 201.956 84.712 201.353 83.393 199.372 81.412 C 198.201 80.241 197.261 79.551 196.081 79.183 L 196.081 65.063 C 201.051 65.83 206.15 68.391 209.271 71.513 C 213.017 75.258 215.956 81.851 215.956 87.651 Z" style="fill: rgb(53, 73, 93); transform-origin: 127px 121.825px;"></path>
  <path d="M 76.768 29.262 C 76.768 34.377 72.621 38.524 67.506 38.524 C 62.391 38.524 53.969 35.599 53.969 30.483 C 53.969 25.368 62.391 20 67.506 20 C 72.621 20 76.768 24.147 76.768 29.262 Z" style="fill: rgb(101, 219, 87); transform-origin: 127px 121.825px;"></path>
  <path d="M 159.275 214.349 C 159.275 209.234 155.128 205.087 150.013 205.087 C 144.898 205.087 136.476 208.012 136.476 213.128 C 136.476 218.243 144.898 223.611 150.013 223.611 C 155.128 223.611 159.275 219.464 159.275 214.349 Z" style="fill: rgb(101, 219, 87); transform-origin: 127px 121.825px;" transform="matrix(-1, 0, 0, -1, -0.000033, 0.000007)"></path>
</svg>